<svg xmlns="http://www.w3.org/2000/svg" xmlns:xlink="http://www.w3.org/1999/xlink">
  <defs>
    <!-- arrow-left -->
    <symbol id="arrow-left" width="24" height="24" viewBox="0 0 24 24" fill="none" stroke="currentColor"
      stroke-linecap="round" stroke-linejoin="round" class="feather feather-arrow-left">
      <line x1="19" y1="12" x2="5" y2="12"></line>
      <polyline points="12 19 5 12 12 5"></polyline>
    </symbol>
    <!-- arrow-right -->
    <symbol id="arrow-right" viewBox="0 0 24 24" fill="none" stroke="currentColor" stroke-linecap="round"
      stroke-linejoin="round" class="feather feather-arrow-right">
      <line x1="5" y1="12" x2="19" y2="12"></line>
      <polyline points="12 5 19 12 12 19"></polyline>
    </symbol>
    <!-- x -->
    <symbol id="x" viewBox="0 0 24 24" fill="none" stroke="currentColor" stroke-linecap="round" stroke-linejoin="round"
      class="feather feather-x">
      <line x1="18" y1="6" x2="6" y2="18"></line>
      <line x1="6" y1="6" x2="18" y2="18"></line>
    </symbol>
    <!-- edit-3 -->
    <symbol id="edit-3" viewBox="0 0 24 24" fill="none" stroke="currentColor" stroke-linecap="round"
      stroke-linejoin="round" class="feather feather-edit-3">
      <path d="M12 20h9"></path>
      <path d="M16.5 3.5a2.121 2.121 0 0 1 3 3L7 19l-4 1 1-4L16.5 3.5z"></path>
    </symbol>
    <!-- map -->
    <symbol id="map" width="24" height="24" viewBox="0 0 24 24" fill="none" stroke="currentColor" stroke-linecap="round"
      stroke-linejoin="round" class="feather feather-map">
      <polygon points="1 6 1 22 8 18 16 22 23 18 23 2 16 6 8 2 1 6"></polygon>
      <line x1="8" y1="2" x2="8" y2="18"></line>
      <line x1="16" y1="6" x2="16" y2="22"></line>
    </symbol>
    <!-- dollar-sign: trade -->
    <symbol id="trade" width="24" height="24" viewBox="0 0 24 24" fill="none" stroke="currentColor"
      stroke-linecap="round" stroke-linejoin="round" class="feather feather-dollar-sign">
      <line x1="12" y1="1" x2="12" y2="23"></line>
      <path d="M17 5H9.5a3.5 3.5 0 0 0 0 7h5a3.5 3.5 0 0 1 0 7H6"></path>
    </symbol>
    <!-- arrow-right-circle -->
    <symbol id="arrow-right-circle" width="24" height="24" viewBox="0 0 24 24" fill="none" stroke="currentColor"
      stroke-width="2" stroke-linecap="round" stroke-linejoin="round" class="feather feather-arrow-right-circle">
      <circle cx="12" cy="12" r="10"></circle>
      <polyline points="12 16 16 12 12 8"></polyline>
      <line x1="8" y1="12" x2="16" y2="12"></line>
    </symbol>
    <!-- arrow-left-circle -->
    <symbol id="arrow-left-circle" width="24" height="24" viewBox="0 0 24 24" fill="none" stroke="currentColor"
      stroke-width="2" stroke-linecap="round" stroke-linejoin="round" class="feather feather-arrow-left-circle">
      <circle cx="12" cy="12" r="10"></circle>
      <polyline points="12 8 8 12 12 16"></polyline>
      <line x1="16" y1="12" x2="8" y2="12"></line>
    </symbol>
    <!-- x-square -->
    <symbol id="x-square" width="24" height="24" viewBox="0 0 24 24" fill="none" stroke="currentColor" stroke-width="2"
      stroke-linecap="round" stroke-linejoin="round" class="feather feather-x-square">
      <rect x="3" y="3" width="18" height="18" rx="2" ry="2"></rect>
      <line x1="9" y1="9" x2="15" y2="15"></line>
      <line x1="15" y1="9" x2="9" y2="15"></line>
    </symbol>
    <!-- refresh-cw -->
    <symbol id="refresh-cw" width="24" height="24" viewBox="0 0 24 24" fill="none" stroke="currentColor"
      stroke-width="2" stroke-linecap="round" stroke-linejoin="round" class="feather feather-refresh-cw">
      <polyline points="23 4 23 10 17 10"></polyline>
      <polyline points="1 20 1 14 7 14"></polyline>
      <path d="M3.51 9a9 9 0 0 1 14.85-3.36L23 10M1 14l4.64 4.36A9 9 0 0 0 20.49 15"></path>
    </symbol>
  </defs>
</svg>